<svg width="57" height="65" viewBox="0 0 57 65" fill="none" xmlns="http://www.w3.org/2000/svg">
<g opacity="0.7" clip-path="url(#clip0_244_12)">
<path d="M56.7466 18.9847C56.7461 17.9169 56.5178 16.9735 56.056 16.1639C55.6024 15.3675 54.923 14.7001 54.0118 14.1724C46.4903 9.83541 38.9614 5.51168 31.4423 1.17027C29.4151 -2.47326e-05 27.4497 0.0428612 25.4376 1.22996C22.4438 2.99535 7.45481 11.5829 2.98829 14.17C1.14885 15.235 0.253774 16.8647 0.253332 18.9827C0.250458 27.7046 0.253332 36.4266 0.250458 45.1485C0.250458 46.1928 0.469528 47.1182 0.910985 47.9155C1.36482 48.7359 2.05365 49.4216 2.98586 49.9612C7.4526 52.5483 22.4436 61.1352 25.4367 62.9012C27.4497 64.089 29.4151 64.1315 31.4429 62.9609C38.9623 58.6193 46.4916 54.2956 54.0143 49.9586C54.9465 49.4192 55.6353 48.733 56.0891 47.9133C56.5299 47.1158 56.7494 46.1906 56.7494 45.1461C56.7494 45.1461 56.7494 27.7068 56.7466 18.9847Z" fill="url(#paint0_linear_244_12)"/>
<g filter="url(#filter0_d_244_12)">
<path d="M28.5864 31.9806L0.910988 47.9155C1.36482 48.7359 2.05365 49.4216 2.98586 49.9612C7.4526 52.5483 22.4436 61.1351 25.4367 62.9012C27.4497 64.089 29.4151 64.1314 31.4429 62.9609C38.9623 58.6193 46.4916 54.2955 54.0143 49.9586C54.9465 49.4192 55.6353 48.733 56.0891 47.9133L28.5864 31.9806Z" fill="url(#paint1_linear_244_12)"/>
</g>
<path d="M56.7468 18.9847C56.7463 17.917 56.518 16.9735 56.0562 16.1639L28.5866 31.9809L56.0894 47.9134C56.5301 47.1158 56.7492 46.1907 56.7497 45.1462C56.7497 45.1462 56.7497 27.7069 56.7468 18.9847" fill="url(#paint2_linear_244_12)"/>
<path d="M44.8808 26.0237V29.0022H47.8593V26.0237H49.3486V29.0022H52.3272V30.4915H49.3486V33.4699H52.3272V34.9591H49.3486V37.9377H47.8593V34.9591H44.8808V37.9377H43.3915V34.9591H40.4131V33.4699H43.3915V30.4915H40.4131V29.0022H43.3915V26.0237H44.8808ZM47.8593 30.4913H44.8808V33.4699H47.8593V30.4913Z" fill="#012247"/>
<path d="M28.6472 11.0649C36.4161 11.0649 43.1989 15.2841 46.832 21.5556L46.7967 21.4952L37.6558 26.7582C35.8551 23.7092 32.5538 21.6513 28.7664 21.6089L28.647 21.6082C22.8718 21.6082 18.1897 26.2903 18.1897 32.0655C18.1878 33.8858 18.6634 35.6747 19.5689 37.2538C21.3714 40.4006 24.7601 42.523 28.6472 42.523C32.5584 42.523 35.9663 40.3736 37.7595 37.1932L37.716 37.2695L46.8429 42.5568C43.2496 48.7752 36.5596 52.9814 28.8811 53.0651L28.6472 53.0665C20.8537 53.0665 14.0517 48.8212 10.4276 42.5166C8.6585 39.4387 7.64626 35.8706 7.64626 32.0655C7.64626 20.4673 17.0484 11.0647 28.647 11.0647L28.6472 11.0649Z" fill="#012247"/>
</g>
<defs>
<filter id="filter0_d_244_12" x="-3.08901" y="31.9806" width="63.1782" height="39.8352" filterUnits="userSpaceOnUse" color-interpolation-filters="sRGB">
<feFlood flood-opacity="0" result="BackgroundImageFix"/>
<feColorMatrix in="SourceAlpha" type="matrix" values="0 0 0 0 0 0 0 0 0 0 0 0 0 0 0 0 0 0 127 0" result="hardAlpha"/>
<feOffset dy="4"/>
<feGaussianBlur stdDeviation="2"/>
<feComposite in2="hardAlpha" operator="out"/>
<feColorMatrix type="matrix" values="0 0 0 0 0 0 0 0 0 0 0 0 0 0 0 0 0 0 0.25 0"/>
<feBlend mode="normal" in2="BackgroundImageFix" result="effect1_dropShadow_244_12"/>
<feBlend mode="normal" in="SourceGraphic" in2="effect1_dropShadow_244_12" result="shape"/>
</filter>
<linearGradient id="paint0_linear_244_12" x1="1.26265" y1="5.25458" x2="59.7862" y2="5.22457" gradientUnits="userSpaceOnUse">
<stop stop-color="#AE67FA"/>
<stop offset="0.973958" stop-color="#F49867"/>
</linearGradient>
<linearGradient id="paint1_linear_244_12" x1="28.5" y1="78" x2="28.5797" y2="24.0001" gradientUnits="userSpaceOnUse">
<stop stop-color="#AE67FA"/>
<stop offset="0.973958" stop-color="#F49867"/>
</linearGradient>
<linearGradient id="paint2_linear_244_12" x1="29.0911" y1="18.6333" x2="58.2634" y2="18.6184" gradientUnits="userSpaceOnUse">
<stop stop-color="#AE67FA"/>
<stop offset="0.973958" stop-color="#F49867"/>
</linearGradient>
<clipPath id="clip0_244_12">
<rect width="57" height="64.1314" fill="white"/>
</clipPath>
</defs>
</svg>
