<svg width="50" height="58" viewBox="0 0 50 58" fill="none" xmlns="http://www.w3.org/2000/svg">
<g opacity="0.7">
<path d="M4.18669 51.6323L0 0.465454L50 0.568277L45.573 51.6323L25.1887 57.5348L4.18669 51.6323Z" fill="url(#paint0_linear_104_23)"/>
<path d="M25.1888 52.5931V5.33826L45.7791 5.40681L42.1073 47.6854L25.1888 52.5931Z" fill="url(#paint1_linear_104_23)"/>
<path d="M40.1169 17.1436L40.7 10.8976H9.02539L10.7754 30.0468H32.6355L31.7782 38.2141L24.7774 40.1012L17.6738 38.0424L17.2964 33.1694H11.0157L11.8738 43.1214L24.777 46.7246L37.7831 43.1214L39.533 23.698H16.5754L15.9234 17.1436H40.1169Z" fill="#012247"/>
</g>
<defs>
<linearGradient id="paint0_linear_104_23" x1="0.895765" y1="4.90418" x2="52.6874" y2="4.87803" gradientUnits="userSpaceOnUse">
<stop stop-color="#AE67FA"/>
<stop offset="0.973958" stop-color="#F49867"/>
</linearGradient>
<linearGradient id="paint1_linear_104_23" x1="25.5576" y1="9.01363" x2="46.8858" y2="9.00828" gradientUnits="userSpaceOnUse">
<stop stop-color="#AE67FA"/>
<stop offset="0.973958" stop-color="#F49867"/>
</linearGradient>
</defs>
</svg>
