<svg width="50" height="58" viewBox="0 0 50 58" fill="none" xmlns="http://www.w3.org/2000/svg">
<g opacity="0.7">
<path d="M50 29.0051C50 25.6928 45.852 22.5538 39.4925 20.6072C40.96 14.1254 40.3078 8.96841 37.4338 7.31737C36.7713 6.93009 35.9967 6.74664 35.1508 6.74664V9.01937C35.6196 9.01937 35.9967 9.11109 36.3127 9.28435C37.6987 10.0793 38.3 13.1062 37.8312 16.9994C37.7191 17.9574 37.5357 18.9664 37.3115 19.9957C35.3139 19.5065 33.1329 19.1294 30.8398 18.8848C29.4639 16.9994 28.0371 15.2872 26.6001 13.789C29.9225 10.701 33.0412 9.00918 35.161 9.00918V6.73645C32.3583 6.73645 28.6894 8.734 24.9796 12.1991C21.2699 8.75439 17.6009 6.77722 14.7982 6.77722V9.04994C16.9079 9.04994 20.0367 10.7316 23.3592 13.7992C21.9323 15.2974 20.5055 16.9994 19.15 18.8848C16.8467 19.1294 14.6657 19.5065 12.6682 20.0059C12.4338 18.9868 12.2605 17.9982 12.1382 17.0503C11.6592 13.1572 12.2503 10.1303 13.6262 9.32512C13.9319 9.14167 14.3294 9.06014 14.7982 9.06014V6.78741C13.9421 6.78741 13.1675 6.97086 12.4949 7.35814C9.63106 9.00918 8.98899 14.1559 10.4668 20.6174C4.1276 22.5742 0 25.703 0 29.0051C0 32.3174 4.14798 35.4564 10.5075 37.403C9.03995 43.8848 9.69221 49.0418 12.5662 50.6928C13.2287 51.0801 14.0033 51.2636 14.8594 51.2636C17.662 51.2636 21.331 49.266 25.0408 45.8009C28.7505 49.2456 32.4195 51.2228 35.2222 51.2228C36.0783 51.2228 36.8528 51.0393 37.5255 50.6521C40.3893 49.001 41.0314 43.8543 39.5536 37.3928C45.8724 35.4462 50 32.3072 50 29.0051V29.0051ZM36.7305 22.2073C36.3534 23.522 35.8846 24.8775 35.3547 26.233C34.9368 25.4177 34.4986 24.6023 34.0196 23.787C33.5508 22.9717 33.0514 22.1767 32.552 21.4022C33.9992 21.6162 35.3954 21.8812 36.7305 22.2073ZM32.0628 33.0614C31.2678 34.4372 30.4525 35.7417 29.6066 36.9545C28.0881 37.087 26.5491 37.1584 25 37.1584C23.4611 37.1584 21.9221 37.087 20.4138 36.9647C19.5679 35.7519 18.7424 34.4576 17.9474 33.0919C17.1728 31.7568 16.4696 30.4013 15.8276 29.0357C16.4594 27.67 17.1729 26.3043 17.9372 24.9692C18.7322 23.5934 19.5475 22.2888 20.3934 21.076C21.9119 20.9435 23.4509 20.8722 25 20.8722C26.5389 20.8722 28.0779 20.9435 29.5862 21.0658C30.4321 22.2786 31.2576 23.573 32.0526 24.9386C32.8272 26.2737 33.5304 27.6292 34.1724 28.9949C33.5304 30.3606 32.8271 31.7263 32.0628 33.0614ZM35.3547 31.7364C35.905 33.1021 36.3738 34.4678 36.7611 35.7927C35.426 36.1188 34.0196 36.394 32.5622 36.608C33.0616 35.8233 33.5609 35.0181 34.0298 34.1926C34.4986 33.3773 34.9368 32.5518 35.3547 31.7364ZM25.0204 42.6109C24.0726 41.6325 23.1247 40.542 22.1871 39.3496C23.1044 39.3903 24.042 39.4209 24.9898 39.4209C25.9478 39.4209 26.8956 39.4005 27.8231 39.3496C26.9058 40.542 25.958 41.6325 25.0204 42.6109ZM17.4378 36.608C15.9906 36.394 14.5944 36.129 13.2593 35.8029C13.6364 34.4882 14.1052 33.1327 14.6351 31.7772C15.053 32.5925 15.4912 33.4079 15.9702 34.2232C16.4492 35.0385 16.9384 35.8335 17.4378 36.608ZM24.9694 15.3993C25.9172 16.3777 26.8651 17.4682 27.8027 18.6606C26.8854 18.6199 25.9478 18.5893 25 18.5893C24.042 18.5893 23.0942 18.6097 22.1667 18.6606C23.084 17.4682 24.0318 16.3777 24.9694 15.3993ZM17.4276 21.4022C16.9283 22.1869 16.4289 22.9921 15.96 23.8176C15.4912 24.6329 15.053 25.4482 14.6351 26.2636C14.0848 24.8979 13.616 23.5322 13.2287 22.2073C14.5638 21.8914 15.9702 21.6162 17.4276 21.4022V21.4022ZM8.20424 34.162C4.59641 32.6231 2.26254 30.6052 2.26254 29.0051C2.26254 27.405 4.59641 25.3769 8.20424 23.8481C9.08072 23.4711 10.0387 23.1347 11.0273 22.8188C11.6082 24.8164 12.3726 26.8954 13.3204 29.0255C12.3828 31.1453 11.6286 33.2142 11.0579 35.2016C10.0489 34.8857 9.09091 34.5391 8.20424 34.162ZM13.6873 48.7258C12.3013 47.9309 11.7 44.904 12.1688 41.0108C12.2809 40.0528 12.4643 39.0438 12.6885 38.0145C14.6861 38.5037 16.8671 38.8808 19.1602 39.1254C20.5361 41.0108 21.9629 42.723 23.3999 44.2212C20.0775 47.3092 16.9588 49.001 14.839 49.001C14.3803 48.9908 13.9931 48.8991 13.6873 48.7258V48.7258ZM37.8618 40.9598C38.3408 44.853 37.7497 47.8799 36.3738 48.6851C36.0681 48.8685 35.6706 48.9501 35.2018 48.9501C33.0921 48.9501 29.9633 47.2684 26.6409 44.2008C28.0677 42.7026 29.4945 41.0006 30.85 39.1152C33.1533 38.8706 35.3343 38.4935 37.3318 37.9941C37.5662 39.0234 37.7497 40.012 37.8618 40.9598V40.9598ZM41.7856 34.162C40.9091 34.5391 39.9511 34.8755 38.9625 35.1914C38.3816 33.1938 37.6172 31.1148 36.6694 28.9847C37.607 26.8649 38.3612 24.796 38.9319 22.8086C39.9409 23.1245 40.8989 23.4711 41.7958 23.8481C45.4036 25.3871 47.7375 27.405 47.7375 29.0051C47.7273 30.6052 45.3934 32.6333 41.7856 34.162V34.162Z" fill="url(#paint0_linear_104_34)"/>
<path d="M24.9898 33.6628C27.5621 33.6628 29.6474 31.5775 29.6474 29.0052C29.6474 26.4329 27.5621 24.3477 24.9898 24.3477C22.4175 24.3477 20.3322 26.4329 20.3322 29.0052C20.3322 31.5775 22.4175 33.6628 24.9898 33.6628Z" fill="url(#paint1_linear_104_34)"/>
</g>
<defs>
<linearGradient id="paint0_linear_104_34" x1="0.895766" y1="10.1997" x2="52.6874" y2="10.1662" gradientUnits="userSpaceOnUse">
<stop stop-color="#AE67FA"/>
<stop offset="0.973958" stop-color="#F49867"/>
</linearGradient>
<linearGradient id="paint1_linear_104_34" x1="20.4991" y1="25.0722" x2="30.148" y2="25.0666" gradientUnits="userSpaceOnUse">
<stop stop-color="#AE67FA"/>
<stop offset="0.973958" stop-color="#F49867"/>
</linearGradient>
</defs>
</svg>
