<svg width="50" height="58" viewBox="0 0 50 58" fill="none" xmlns="http://www.w3.org/2000/svg">
<g opacity="0.7">
<path d="M4.18669 51.6317L0 0.465576L50 0.568399L45.573 51.6317L25.1887 57.5341L4.18669 51.6317Z" fill="url(#paint0_linear_104_27)"/>
<path d="M25.1887 52.5928V5.33875L45.779 5.40729L42.1073 47.6855L25.1887 52.5928Z" fill="url(#paint1_linear_104_27)"/>
<path d="M40.6657 11.3787H8.99115L9.84921 17.5553H24.8798L10.0895 23.9041L10.9472 29.8751H32.7387L31.9492 38.2138L24.5709 39.6554L17.8794 37.9396L17.3645 33.2037H11.2218L12.0452 43.053L25.223 46.7248L37.852 42.7098L39.4649 23.4577H26.1149L40.6653 17.4182L40.6657 11.3787Z" fill="#041122"/>
</g>
<defs>
<linearGradient id="paint0_linear_104_27" x1="0.895765" y1="4.90424" x2="52.6874" y2="4.8781" gradientUnits="userSpaceOnUse">
<stop stop-color="#AE67FA"/>
<stop offset="0.973958" stop-color="#F49867"/>
</linearGradient>
<linearGradient id="paint1_linear_104_27" x1="25.5576" y1="9.01406" x2="46.8857" y2="9.0087" gradientUnits="userSpaceOnUse">
<stop stop-color="#AE67FA"/>
<stop offset="0.973958" stop-color="#F49867"/>
</linearGradient>
</defs>
</svg>
