<svg width="31" height="58" viewBox="0 0 31 58" fill="none" xmlns="http://www.w3.org/2000/svg">
<g opacity="0.7">
<path d="M29.694 45.6384H29.4769V45.5168H30.0617V45.6384H29.8458V46.2447H29.694V45.6384V45.6384ZM30.8604 45.67H30.857L30.6417 46.2449H30.5432L30.3293 45.67H30.3268V46.2449H30.1836V45.5171H30.3943L30.5925 46.0324L30.7901 45.5171H31V46.2449H30.8603L30.8604 45.67V45.67Z" fill="url(#paint0_linear_104_46)"/>
<path d="M10.2493 30.7558C10.2493 30.7558 8.738 31.6346 11.3248 31.932C14.4586 32.2895 16.0602 32.2383 19.5137 31.5846C19.5137 31.5846 20.4217 32.1539 21.6897 32.647C13.9479 35.965 4.1685 32.4548 10.2493 30.7558ZM9.30326 26.426C9.30326 26.426 7.60823 27.6807 10.1969 27.9485C13.5446 28.2938 16.1883 28.3221 20.7629 27.4412C20.7629 27.4412 21.3957 28.0827 22.3906 28.4335C13.0302 31.1705 2.60458 28.6493 9.30326 26.426" fill="url(#paint1_linear_104_46)"/>
<path d="M17.2783 19.0813C19.1859 21.2775 16.7772 23.254 16.7772 23.254C16.7772 23.254 21.6206 20.7535 19.3963 17.6224C17.3187 14.7023 15.7255 13.2516 24.3506 8.24939C24.3507 8.24928 10.812 11.6306 17.2783 19.0813" fill="url(#paint2_linear_104_46)"/>
<path d="M27.5174 33.9584C27.5174 33.9584 28.6358 34.88 26.2858 35.5928C21.8171 36.9465 7.68677 37.3553 3.76142 35.6468C2.35036 35.0328 4.9965 34.181 5.82887 34.0022C6.69696 33.814 7.19304 33.849 7.19304 33.849C5.62379 32.7436 -2.94992 36.0196 2.83801 36.9579C18.6226 39.5177 31.6118 35.8052 27.5174 33.9584V33.9584ZM10.976 21.9399C10.976 21.9399 3.78839 23.6471 8.43067 24.267C10.3908 24.5295 14.2982 24.4701 17.9378 24.1651C20.9124 23.9142 23.8993 23.3808 23.8993 23.3808C23.8993 23.3808 22.8504 23.83 22.0916 24.3481C14.7927 26.2678 0.69264 25.3746 4.75187 23.4111C8.18477 21.7517 10.976 21.9399 10.976 21.9399V21.9399ZM23.8696 29.147C31.2893 25.2915 27.8588 21.5863 25.4643 22.0855C24.8774 22.2077 24.6157 22.3135 24.6157 22.3135C24.6157 22.3135 24.8337 21.9722 25.2496 21.8245C29.9866 20.1591 33.6297 26.7364 23.7204 29.3415C23.7204 29.3415 23.8354 29.2389 23.8696 29.147Z" fill="url(#paint3_linear_104_46)"/>
<path d="M19.3963 0.171997C19.3963 0.171997 23.5054 4.28239 15.499 10.6033C9.07867 15.6735 14.035 18.5645 15.4963 21.8677C11.7488 18.4863 8.99851 15.5098 10.8436 12.7395C13.5517 8.67291 21.0542 6.70128 19.3963 0.171997" fill="url(#paint4_linear_104_46)"/>
<path d="M11.7051 39.5946C18.827 40.0505 29.7635 39.3417 30.0224 35.9719C30.0224 35.9719 29.5246 37.2493 24.1365 38.264C18.0579 39.4078 10.5606 39.2743 6.1139 38.5412C6.11411 38.541 7.0243 39.2945 11.7051 39.5946" fill="url(#paint5_linear_104_46)"/>
<path d="M10.5379 52.4712C9.86604 53.0539 9.15646 53.3811 8.51968 53.3811C7.61077 53.3811 7.1197 52.8361 7.1197 51.9619C7.1197 51.0163 7.64594 50.325 9.75668 50.325H10.5378L10.5379 52.4712V52.4712ZM12.3917 54.5629V48.0882C12.3917 46.4342 11.4484 45.3429 9.17394 45.3429C7.84612 45.3429 6.68299 45.6707 5.73763 46.0889L6.0105 47.235C6.75484 46.9618 7.71832 46.7075 8.664 46.7075C9.97423 46.7075 10.5379 47.235 10.5379 48.3256V49.144H9.88395C6.70058 49.144 5.26457 50.3798 5.26457 52.2345C5.26457 53.8353 6.2109 54.7451 7.99269 54.7451C9.13802 54.7451 9.99299 54.2722 10.7922 53.5802L10.9373 54.5631L12.3917 54.5629V54.5629ZM18.5787 54.5629H16.2666L13.4839 45.5068H15.5032L17.2297 51.0708L17.6136 52.7442C18.4871 50.3248 19.105 47.8702 19.414 45.5068H21.3782C20.8518 48.4888 19.9049 51.762 18.5787 54.5629V54.5629ZM27.4486 52.4712C26.7755 53.0539 26.0647 53.3811 25.4278 53.3811C24.5205 53.3811 24.0282 52.8361 24.0282 51.9619C24.0282 51.0163 24.5555 50.325 26.6661 50.325H27.4486V52.4712ZM29.3022 54.5629V48.0882C29.3022 46.4342 28.3566 45.3429 26.0846 45.3429C24.756 45.3429 23.5924 45.6707 22.6475 46.0889L22.92 47.235C23.6646 46.9618 24.6299 46.7075 25.5748 46.7075C26.8841 46.7075 27.4486 47.235 27.4486 48.3256V49.144H26.7935C23.6093 49.144 22.1738 50.3798 22.1738 52.2345C22.1738 53.8353 23.1194 54.7451 24.9008 54.7451C26.0469 54.7451 26.9016 54.2722 27.7021 53.5802L27.8477 54.5631L29.3022 54.5629V54.5629ZM3.23187 56.1007C2.70338 56.8723 1.8498 57.4827 0.915305 57.8281L0 56.751C0.711288 56.386 1.32131 55.7965 1.60474 55.2476C1.8499 54.7593 1.95138 54.13 1.95138 52.625V42.2861H3.92098V52.4833C3.92088 54.4953 3.76003 55.308 3.23187 56.1007" fill="url(#paint6_linear_104_46)"/>
</g>
<defs>
<linearGradient id="paint0_linear_104_46" x1="29.5042" y1="45.5735" x2="31.0819" y2="45.5716" gradientUnits="userSpaceOnUse">
<stop stop-color="#AE67FA"/>
<stop offset="0.973958" stop-color="#F49867"/>
</linearGradient>
<linearGradient id="paint1_linear_104_46" x1="7.44739" y1="27.0169" x2="23.2084" y2="26.9987" gradientUnits="userSpaceOnUse">
<stop stop-color="#AE67FA"/>
<stop offset="0.973958" stop-color="#F49867"/>
</linearGradient>
<linearGradient id="paint2_linear_104_46" x1="15.6867" y1="9.41641" x2="24.8247" y2="9.41332" gradientUnits="userSpaceOnUse">
<stop stop-color="#AE67FA"/>
<stop offset="0.973958" stop-color="#F49867"/>
</linearGradient>
<linearGradient id="paint3_linear_104_46" x1="1.37798" y1="22.8234" x2="31.5721" y2="22.7923" gradientUnits="userSpaceOnUse">
<stop stop-color="#AE67FA"/>
<stop offset="0.973958" stop-color="#F49867"/>
</linearGradient>
<linearGradient id="paint4_linear_104_46" x1="10.4374" y1="1.85944" x2="20.9986" y2="1.85658" gradientUnits="userSpaceOnUse">
<stop stop-color="#AE67FA"/>
<stop offset="0.973958" stop-color="#F49867"/>
</linearGradient>
<linearGradient id="paint5_linear_104_46" x1="6.54223" y1="36.2634" x2="31.3071" y2="36.1723" gradientUnits="userSpaceOnUse">
<stop stop-color="#AE67FA"/>
<stop offset="0.973958" stop-color="#F49867"/>
</linearGradient>
<linearGradient id="paint6_linear_104_46" x1="0.524959" y1="43.495" x2="30.8771" y2="43.462" gradientUnits="userSpaceOnUse">
<stop stop-color="#AE67FA"/>
<stop offset="0.973958" stop-color="#F49867"/>
</linearGradient>
</defs>
</svg>
