<svg width="57" height="58" viewBox="0 0 57 58" fill="none" xmlns="http://www.w3.org/2000/svg">
<g opacity="0.7">
<path d="M0 0.5H57V57.5H0V0.5Z" fill="url(#paint0_linear_104_31)"/>
<path d="M52.3349 43.9057C51.9177 41.3049 50.2218 39.1214 45.1991 37.0841C43.4544 36.2822 41.5092 35.7079 40.9295 34.3858C40.7236 33.6164 40.6965 33.1829 40.8265 32.717C41.2004 31.2053 43.0047 30.7339 44.4351 31.1673C45.3562 31.4762 46.2285 32.186 46.7541 33.3184C49.214 31.7255 49.2086 31.7363 50.9261 30.6418C50.2976 29.6665 49.9617 29.2168 49.5499 28.7996C48.0707 27.147 46.0551 26.2964 42.8313 26.3614C42.2732 26.4318 41.7098 26.5076 41.1516 26.5781C39.5425 26.9845 38.0091 27.8297 37.1096 28.9622C34.4113 32.0235 35.1807 37.3821 38.4642 39.5874C41.6989 42.0148 46.4507 42.5674 47.0575 44.8377C47.6481 47.6173 45.0149 48.5167 42.3978 48.197C40.4689 47.7961 39.3962 46.8154 38.2366 45.0328C36.1019 46.2681 36.1019 46.2681 33.9075 47.5306C34.4277 48.6684 34.9748 49.1832 35.8472 50.1693C39.9759 54.3576 50.3085 54.1517 52.1616 47.8123C52.2374 47.5956 52.7359 46.1435 52.3349 43.9057V43.9057ZM30.987 26.6973H25.6555C25.6555 31.3028 25.6339 35.8758 25.6339 40.4814C25.6339 43.4126 25.7856 46.1001 25.3088 46.9237C24.5285 48.5437 22.5075 48.3433 21.5864 48.029C20.6491 47.5684 20.1723 46.9128 19.6196 45.9863C19.4679 45.7208 19.3541 45.5149 19.3161 45.4987C17.8695 46.3819 16.4282 47.2704 14.9815 48.1536C15.7022 49.6328 16.7641 50.917 18.1241 51.7513C20.156 52.9704 22.8868 53.3443 25.7422 52.6887C27.6007 52.1469 29.2044 51.0253 30.0442 49.3186C31.2579 47.0808 30.9979 44.3717 30.987 41.3754C31.0141 36.4881 30.987 31.6008 30.987 26.6973Z" fill="#040F1D"/>
</g>
<defs>
<linearGradient id="paint0_linear_104_31" x1="1.02117" y1="4.93333" x2="60.0636" y2="4.89931" gradientUnits="userSpaceOnUse">
<stop stop-color="#AE67FA"/>
<stop offset="0.973958" stop-color="#F49867"/>
</linearGradient>
</defs>
</svg>
