<svg width="52" height="58" viewBox="0 0 52 58" fill="none" xmlns="http://www.w3.org/2000/svg">
<g opacity="0.7">
<path d="M23.6597 1.09258C25.0736 0.283305 26.9151 0.27965 28.3277 1.09258C35.4346 5.10831 42.5436 9.11774 49.6492 13.1359C50.9857 13.8887 51.8796 15.3761 51.866 16.916V41.0762C51.876 42.6799 50.8937 44.2028 49.4837 44.9386C42.4002 48.9322 35.3204 52.9306 28.2382 56.9242C26.7951 57.7493 24.9166 57.6858 23.5186 56.793C21.395 55.562 19.2677 54.337 17.1439 53.1071C16.7099 52.8484 16.2207 52.6425 15.9142 52.2217C16.1851 51.8565 16.6695 51.8111 17.063 51.6516C17.9495 51.3698 18.7636 50.9173 19.578 50.4782C19.7839 50.3373 20.0353 50.3913 20.2327 50.5174C22.0487 51.5586 23.8486 52.6301 25.6706 53.6613C26.0593 53.8857 26.4529 53.5878 26.7851 53.4026C33.7362 49.474 40.6958 45.5602 47.6456 41.6304C47.9031 41.5065 48.0455 41.2332 48.0246 40.9511C48.0294 32.9812 48.0258 25.0098 48.027 17.0399C48.0564 16.7199 47.8712 16.4256 47.5818 16.2946C40.5229 12.3193 33.4677 8.3379 26.41 4.36158C26.2878 4.27751 26.1429 4.23241 25.9945 4.23219C25.8461 4.23197 25.7012 4.27665 25.5786 4.36036C18.521 8.3379 11.467 12.323 4.40928 16.2981C4.12091 16.4293 3.92737 16.7187 3.96169 17.0399C3.96291 25.0098 3.96169 32.9812 3.96169 40.9523C3.94946 41.0899 3.97968 41.228 4.04831 41.348C4.11693 41.4679 4.22066 41.5639 4.34552 41.6231C6.22889 42.6911 8.1147 43.7516 9.99929 44.8159C11.061 45.3874 12.3646 45.7269 13.5343 45.2891C14.5666 44.9189 15.2902 43.8655 15.2705 42.7695C15.2802 34.8461 15.2656 26.9214 15.2778 18.9993C15.252 18.6475 15.5856 18.3569 15.9276 18.39C16.8326 18.3839 17.7387 18.3778 18.6436 18.3924C19.0214 18.3839 19.2813 18.7627 19.2346 19.117C19.2309 27.0906 19.2443 35.0644 19.2285 43.038C19.2309 45.163 18.3579 47.4753 16.3923 48.515C13.9707 49.7695 10.9777 49.5034 8.58544 48.3006C6.51442 47.2669 4.53804 46.047 2.50378 44.9396C1.09013 44.2079 0.112702 42.6789 0.122653 41.0764V16.916C0.107828 15.3442 1.03733 13.8298 2.41544 13.088C9.49768 9.09113 16.5787 5.09125 23.6597 1.09258Z" fill="url(#paint0_linear_104_42)"/>
<path d="M29.8382 17.8285C32.927 17.6297 36.2338 17.7107 39.0134 19.2324C41.1654 20.3985 42.3585 22.8458 42.3965 25.2367C42.3364 25.5592 41.9993 25.7371 41.6914 25.7149C40.7952 25.7137 39.8988 25.7271 39.0026 25.7088C38.6225 25.7235 38.4015 25.373 38.3538 25.0369C38.0963 23.8929 37.4724 22.7599 36.3957 22.2081C34.7428 21.3806 32.8263 21.4222 31.024 21.4395C29.7082 21.5093 28.2933 21.6233 27.1786 22.397C26.3228 22.9831 26.0629 24.1662 26.3683 25.1191C26.6563 25.8033 27.4461 26.024 28.0923 26.2275C31.8148 27.2011 35.7594 27.1042 39.4108 28.3854C40.9226 28.9078 42.4014 29.9232 42.9188 31.506C43.5957 33.6274 43.299 36.163 41.7897 37.8661C40.5657 39.2675 38.7831 40.0303 37.0051 40.4446C34.6398 40.972 32.1852 40.9854 29.7831 40.7512C27.5245 40.4937 25.174 39.9003 23.4304 38.3614C21.9393 37.0667 21.2111 35.0495 21.2834 33.1026C21.3006 32.7738 21.628 32.5445 21.943 32.5715C22.8455 32.5642 23.748 32.5618 24.6505 32.5728C25.0109 32.547 25.2782 32.8585 25.2967 33.1983C25.4632 34.2882 25.8728 35.4321 26.8232 36.0783C28.6575 37.2617 30.959 37.1807 33.0593 37.2138C34.7992 37.1366 36.7525 37.1132 38.1724 35.9632C38.9216 35.3072 39.1436 34.2098 38.9411 33.2657C38.7218 32.4686 37.8879 32.0972 37.1718 31.8543C33.4971 30.6918 29.5084 31.1136 25.8692 29.7991C24.3917 29.277 22.9631 28.2898 22.3955 26.772C21.6034 24.6238 21.9663 21.9667 23.6338 20.3211C25.2597 18.6843 27.6067 18.0539 29.8382 17.8283V17.8285Z" fill="url(#paint1_linear_104_42)"/>
</g>
<defs>
<linearGradient id="paint0_linear_104_42" x1="1.04948" y1="4.91919" x2="54.6473" y2="4.89117" gradientUnits="userSpaceOnUse">
<stop stop-color="#AE67FA"/>
<stop offset="0.973958" stop-color="#F49867"/>
</linearGradient>
<linearGradient id="paint1_linear_104_42" x1="21.6723" y1="19.5501" x2="44.4439" y2="19.5376" gradientUnits="userSpaceOnUse">
<stop stop-color="#AE67FA"/>
<stop offset="0.973958" stop-color="#F49867"/>
</linearGradient>
</defs>
</svg>
