<svg width="60" height="32" viewBox="0 0 60 32" fill="none" xmlns="http://www.w3.org/2000/svg">
<g opacity="0.7">
<path d="M30 31.5248C46.5685 31.5248 60 24.5331 60 15.9084C60 7.28369 46.5685 0.291992 30 0.291992C13.4315 0.291992 0 7.28369 0 15.9084C0 24.5331 13.4315 31.5248 30 31.5248Z" fill="url(#paint0_linear_104_54)"/>
<path fill-rule="evenodd" clip-rule="evenodd" d="M8.42462 25.155L11.7124 8.51112H19.3149C22.6024 8.71666 24.2463 10.3603 24.2463 13.2373C24.2463 18.1687 20.3424 21.0454 16.849 20.8399H13.1508L12.3288 25.155H8.42462ZM13.9725 17.7579L15 11.5934H17.6712C19.1095 11.5934 20.1368 12.2098 20.1368 13.4426C19.9315 16.9359 18.2876 17.5523 16.4384 17.7579H13.9727H13.9725ZM23.4825 20.8399L26.7701 4.19629H30.6743L29.8524 8.51112H33.5508C36.8386 8.71666 38.0714 10.3603 37.6606 12.4153L36.2222 20.8399H32.1127L33.551 13.2373C33.7563 12.2098 33.7563 11.5934 32.3182 11.5934H29.2359L27.3867 20.8399H23.4825V20.8399ZM35.959 25.155L39.2466 8.51112H46.8492C50.137 8.71666 51.7809 10.3603 51.7809 13.2373C51.7809 18.1687 47.8767 21.0454 44.3836 20.8399H40.6849L39.863 25.155H35.959V25.155ZM41.5067 17.7579L42.5342 11.5934H45.2056C46.6439 11.5934 47.6712 12.2098 47.6712 13.4426C47.4659 16.9359 45.822 17.5523 43.9727 17.7579H41.5069H41.5067Z" fill="#232531"/>
</g>
<defs>
<linearGradient id="paint0_linear_104_54" x1="1.07492" y1="2.72121" x2="63.2248" y2="2.65242" gradientUnits="userSpaceOnUse">
<stop stop-color="#AE67FA"/>
<stop offset="0.973958" stop-color="#F49867"/>
</linearGradient>
</defs>
</svg>
