<svg width="150" height="28" viewBox="0 0 150 28" fill="none" xmlns="http://www.w3.org/2000/svg">
<path d="M30.0648 21.3592C31.6398 21.3592 32.6214 20.7875 33.0098 19.644C33.1392 19.2125 33.2363 18.6623 33.301 17.9935L32.4596 17.9611C32.3302 19.4498 31.9526 20.2049 31.3269 20.2265C30.8523 20.1834 30.6149 19.644 30.6149 18.6084V11.8446C30.6149 9.14776 29.3636 7.48649 26.8609 6.86081C26.2136 6.70979 25.5125 6.63428 24.7573 6.63428C21.8231 6.63428 19.9785 7.27074 19.2234 8.54366C19.0292 8.86729 18.9321 9.21249 18.9321 9.57926C18.9321 10.4207 19.3312 10.9493 20.1295 11.165C20.3237 11.2297 20.5286 11.2621 20.7444 11.2621C21.6721 11.2621 22.2978 10.809 22.6214 9.90289C22.6646 9.77344 22.7293 9.55769 22.8156 9.25564C23.0529 8.39264 23.355 7.85326 23.7217 7.63751C23.9591 7.52964 24.2288 7.4757 24.5308 7.4757C25.5448 7.4757 26.1597 8.09059 26.3755 9.32036C26.4618 9.77344 26.5049 10.3128 26.5049 10.9385V13.042C20.9601 13.1499 18.177 14.617 18.1554 17.4433C18.1554 19.3635 18.9968 20.5933 20.6797 21.1327C21.1759 21.2837 21.7261 21.3592 22.3302 21.3592C24.164 21.3592 25.5125 20.6688 26.3755 19.288C26.5481 19.0075 26.6883 18.7163 26.7962 18.4142C27.2492 20.2697 28.3388 21.2513 30.0648 21.3592ZM24.013 19.9676C22.9343 19.9245 22.3841 18.9644 22.3625 17.0874C22.3625 15.6634 22.945 14.7357 24.1101 14.3042C24.7358 14.11 25.534 13.9913 26.5049 13.9482V17.0874C26.095 18.5976 25.4369 19.5253 24.5308 19.8705C24.3366 19.9352 24.164 19.9676 24.013 19.9676Z" fill="white"/>
<path d="M40.6797 20.1941H40.0971L40.1295 11.8446C40.259 10.1402 40.8199 9.0291 41.8124 8.5113C42.0928 8.36028 42.3733 8.28476 42.6538 8.28476C43.4521 8.28476 44.0238 8.78099 44.369 9.77344C44.52 10.2481 44.5955 10.7767 44.5955 11.3592V18.5113C44.5955 19.3959 44.3906 19.9245 43.9806 20.0971C43.7865 20.1618 43.5168 20.1941 43.1716 20.1941V21.0356H50.0324C50.0324 20.5393 49.8922 20.2697 49.6117 20.2265C49.4823 20.2049 49.3528 20.1941 49.2234 20.1941H48.6732V11.9094V11.6828C48.8242 9.8921 49.4067 8.78099 50.4208 8.34949C50.6365 8.26319 50.8523 8.22004 51.068 8.22004C51.9957 8.22004 52.6322 8.7702 52.9774 9.87052C53.1069 10.3236 53.1716 10.8198 53.1716 11.3592V18.5113C53.1716 19.3959 52.9666 19.9245 52.5567 20.0971C52.3625 20.1618 52.0928 20.1941 51.7476 20.1941V21.0356H59.1263C59.1263 20.5393 58.986 20.2697 58.7056 20.2265C58.5761 20.2049 58.4467 20.1941 58.3172 20.1941H57.2492V11.7475C57.2492 9.6332 56.5481 8.13374 55.1457 7.24916C54.4984 6.83924 53.7973 6.63428 53.0421 6.63428C50.9494 6.65585 49.3852 7.65909 48.3496 9.64399C47.8318 8.11216 46.9148 7.15208 45.5988 6.76373C45.2536 6.67743 44.9084 6.63428 44.5632 6.63428C42.492 6.65585 40.9817 7.60515 40.0324 9.48217L39.8706 7.11971H34.1101V7.96114H35.9871V18.5113C35.9871 19.5037 35.5233 20.0539 34.5955 20.1618C34.4445 20.1834 34.2827 20.1941 34.1101 20.1941V21.0356H41.4564C41.4564 20.5393 41.3161 20.2697 41.0357 20.2265C40.9278 20.2049 40.8091 20.1941 40.6797 20.1941Z" fill="white"/>
<path d="M67.6052 20.1941H66.4078V7.11971H60.4208V7.96114H62.2978V18.5113C62.2978 19.4606 61.9202 20 61.1651 20.1294C60.9494 20.1726 60.7012 20.1941 60.4208 20.1941V21.0356H68.3819C68.3819 20.5393 68.2417 20.2697 67.9612 20.2265C67.8533 20.2049 67.7347 20.1941 67.6052 20.1941Z" fill="white"/>
<path d="M81.5858 21.3592C83.1608 21.3592 84.1425 20.7875 84.5308 19.644C84.6603 19.2125 84.7573 18.6623 84.8221 17.9935L83.9806 17.9611C83.8512 19.4498 83.4736 20.2049 82.848 20.2265C82.3733 20.1834 82.136 19.644 82.136 18.6084V11.8446C82.136 9.14776 80.8846 7.48649 78.3819 6.86081C77.7347 6.70979 77.0335 6.63428 76.2784 6.63428C73.3442 6.63428 71.4995 7.27074 70.7444 8.54366C70.5502 8.86729 70.4531 9.21249 70.4531 9.57926C70.4531 10.4207 70.8523 10.9493 71.6505 11.165C71.8447 11.2297 72.0497 11.2621 72.2654 11.2621C73.1932 11.2621 73.8188 10.809 74.1425 9.90289C74.1856 9.77344 74.2503 9.55769 74.3366 9.25564C74.574 8.39264 74.876 7.85326 75.2428 7.63751C75.4801 7.52964 75.7498 7.4757 76.0518 7.4757C77.0659 7.4757 77.6808 8.09059 77.8965 9.32036C77.9828 9.77344 78.026 10.3128 78.026 10.9385V13.042C72.4812 13.1499 69.698 14.617 69.6764 17.4433C69.6764 19.3635 70.5179 20.5933 72.2007 21.1327C72.6969 21.2837 73.2471 21.3592 73.8512 21.3592C75.6851 21.3592 77.0335 20.6688 77.8965 19.288C78.0691 19.0075 78.2093 18.7163 78.3172 18.4142C78.7703 20.2697 79.8598 21.2513 81.5858 21.3592ZM75.534 19.9676C74.4553 19.9245 73.9051 18.9644 73.8836 17.0874C73.8836 15.6634 74.4661 14.7357 75.6311 14.3042C76.2568 14.11 77.0551 13.9913 78.026 13.9482V17.0874C77.616 18.5976 76.958 19.5253 76.0518 19.8705C75.8577 19.9352 75.6851 19.9676 75.534 19.9676Z" fill="white"/>
<path d="M92.4272 20.1941H91.6182L91.6505 11.9094C91.8016 10.2049 92.4272 9.08304 93.5276 8.54366C93.8296 8.39264 94.1425 8.31713 94.4661 8.31713C95.6959 8.31713 96.4186 9.03989 96.6344 10.4854C96.6775 10.7659 96.6991 11.0571 96.6991 11.3592V18.5113C96.6991 19.4174 96.4618 19.946 95.9871 20.0971C95.7714 20.1618 95.5125 20.1941 95.2104 20.1941V21.0356H102.686C102.686 20.5393 102.546 20.2697 102.265 20.2265C102.136 20.2049 102.007 20.1941 101.877 20.1941H100.809V11.9094C100.809 9.23406 99.8598 7.562 97.9612 6.89318C97.4434 6.72058 96.9041 6.63428 96.3431 6.63428C94.7681 6.63428 93.4305 7.25995 92.3302 8.5113C92.0065 8.87807 91.7476 9.25564 91.5535 9.64399L91.3916 7.11971H85.6311V7.96114H87.5081V18.5113C87.5081 19.5037 87.0443 20.0539 86.1166 20.1618C85.9655 20.1834 85.8037 20.1941 85.6311 20.1941V21.0356H93.2039C93.2039 20.5393 93.0637 20.2697 92.7832 20.2265C92.6754 20.2049 92.5567 20.1941 92.4272 20.1941Z" fill="white"/>
<path d="M128.155 20.1941H125.761V13.2039C125.912 10.9385 126.462 9.55769 127.411 9.06146C127.562 8.99674 127.702 8.96437 127.832 8.96437C128.069 8.96437 128.328 9.21249 128.608 9.70871C128.997 10.3991 129.418 10.8306 129.871 11.0032C130.086 11.0679 130.324 11.1003 130.583 11.1003C131.446 11.1003 132.06 10.6904 132.427 9.87052C132.557 9.59005 132.621 9.29879 132.621 8.99674C132.621 7.91799 132.093 7.23838 131.036 6.9579C130.777 6.89318 130.507 6.86081 130.227 6.86081C128.889 6.86081 127.713 7.3894 126.699 8.44658C126.246 8.96437 125.901 9.52532 125.663 10.1294L125.437 7.11971H119.774V7.96114H121.651V18.5113C121.651 19.4606 121.273 20 120.518 20.1294C120.302 20.1726 120.054 20.1941 119.774 20.1941V21.0356H128.932C128.932 20.5393 128.792 20.2697 128.511 20.2265C128.404 20.2049 128.285 20.1941 128.155 20.1941Z" fill="white"/>
<path d="M139.385 26.343V19.8705C140.227 20.8198 141.51 21.316 143.236 21.3592C145.372 21.3592 147.087 20.5393 148.382 18.8996C149.461 17.4757 150 15.7066 150 13.5922C150 10.8522 149.18 8.86729 147.541 7.63751C146.656 6.96869 145.642 6.63428 144.498 6.63428C142.772 6.63428 141.37 7.27074 140.291 8.54366C139.86 9.06146 139.536 9.62241 139.32 10.2265L139.159 7.11971H133.43V7.96114H135.275V24.6602C135.275 25.5879 134.919 26.1273 134.207 26.2783C133.97 26.3214 133.711 26.343 133.43 26.343V27.1844H141.845C141.845 26.6882 141.704 26.4185 141.424 26.3754C141.295 26.3538 141.165 26.343 141.036 26.343H139.385ZM142.783 8.18768C144.639 8.23083 145.566 10.1941 145.566 14.0776C145.545 18.3279 144.542 20.4638 142.557 20.4854C141.392 20.4854 140.518 19.7734 139.935 18.3495C139.547 17.357 139.353 16.1381 139.353 14.6925C139.353 11.9957 139.935 10.0755 141.1 8.93201C141.618 8.43579 142.179 8.18768 142.783 8.18768Z" fill="white"/>
<path d="M11.2298 21.0356H17.0227C17.0227 20.5394 16.8932 20.2589 16.6343 20.1942C16.5264 20.1726 16.397 20.1618 16.246 20.1618H14.7573V0H7.70227V0.841424H10.6472V8.02589C9.54693 7.07659 8.23085 6.60194 6.69903 6.60194C4.64941 6.60194 2.97735 7.38943 1.68285 8.9644C0.560949 10.3883 0 12.1791 0 14.3366C0 17.0119 0.873786 18.986 2.62136 20.2589C3.61381 20.9924 4.71413 21.3592 5.92233 21.3592C7.9288 21.3592 9.41748 20.507 10.3883 18.8026C10.5394 18.5437 10.6688 18.274 10.7767 17.9935L11.2298 21.0356ZM4.43366 13.9482C4.43366 10.7983 5.11327 8.81338 6.47249 7.99353C6.86084 7.77778 7.27077 7.6699 7.70227 7.6699C9.25566 7.6699 10.2157 8.86731 10.5825 11.2621C10.6688 11.9094 10.712 12.5998 10.712 13.3333C10.712 16.5696 10.0324 18.63 8.67314 19.5146C8.28479 19.7519 7.86408 19.8706 7.411 19.8706C5.90075 19.8706 4.96224 18.6408 4.59547 16.1812C4.48759 15.5124 4.43366 14.7681 4.43366 13.9482Z" fill="#F2C94C"/>
<path d="M115.698 21.3592C117.273 21.3592 118.255 20.7875 118.643 19.644C118.772 19.2125 118.869 18.6623 118.934 17.9935L118.093 17.9611C117.963 19.4498 117.586 20.2049 116.96 20.2265C116.485 20.1834 116.248 19.644 116.248 18.6084V11.8446C116.248 9.14776 114.997 7.48649 112.494 6.86081C111.847 6.70979 111.146 6.63428 110.391 6.63428C107.456 6.63428 105.612 7.27074 104.857 8.54366C104.662 8.86729 104.565 9.21249 104.565 9.57926C104.565 10.4207 104.964 10.9493 105.763 11.165C105.957 11.2297 106.162 11.2621 106.378 11.2621C107.305 11.2621 107.931 10.809 108.255 9.90289C108.298 9.77344 108.362 9.55769 108.449 9.25564C108.686 8.39264 108.988 7.85326 109.355 7.63751C109.592 7.52964 109.862 7.4757 110.164 7.4757C111.178 7.4757 111.793 8.09059 112.009 9.32036C112.095 9.77344 112.138 10.3128 112.138 10.9385V13.042C106.593 13.1499 103.81 14.617 103.789 17.4433C103.789 19.3635 104.63 20.5933 106.313 21.1327C106.809 21.2837 107.359 21.3592 107.963 21.3592C109.797 21.3592 111.146 20.6688 112.009 19.288C112.181 19.0075 112.321 18.7163 112.429 18.4142C112.882 20.2697 113.972 21.2513 115.698 21.3592ZM109.646 19.9676C108.567 19.9245 108.017 18.9644 107.996 17.0874C107.996 15.6634 108.578 14.7357 109.743 14.3042C110.369 14.11 111.167 13.9913 112.138 13.9482V17.0874C111.728 18.5976 111.07 19.5253 110.164 19.8705C109.97 19.9352 109.797 19.9676 109.646 19.9676Z" fill="#F2C94C"/>
<path d="M66.699 2.88031C66.699 1.93101 66.2783 1.22982 65.4369 0.77675C65.0701 0.561 64.6818 0.453125 64.2718 0.453125C63.3441 0.453125 62.6429 0.873837 62.1683 1.71526C61.9741 2.08204 61.877 2.47038 61.877 2.88031C61.877 3.82961 62.2977 4.52001 63.1392 4.95151C63.5059 5.14568 63.8835 5.24277 64.2718 5.24277C65.2211 5.24277 65.9223 4.84363 66.3754 4.04536C66.5911 3.67858 66.699 3.29023 66.699 2.88031Z" fill="#F2C94C"/>
</svg>
