<svg width="60" height="60" viewBox="0 0 60 60" fill="none" xmlns="http://www.w3.org/2000/svg">
<g opacity="0.7">
<path d="M27.6126 7.80066L28.9129 10.2429C29.2053 10.6936 29.522 11.0925 29.895 11.464C30.9887 12.5441 32.0081 13.6968 32.9463 14.9143C35.1495 17.8072 36.6356 21.0199 37.6969 24.4945C38.3333 26.617 38.679 28.7943 38.7048 30.996C38.8114 37.5782 36.5549 43.2301 32.0054 47.9273C31.2653 48.6722 30.4658 49.3556 29.6148 49.9707C29.1642 49.9707 28.951 49.625 28.7652 49.3068C28.4269 48.7167 28.2018 48.0687 28.1014 47.396C27.9415 46.5996 27.8364 45.8033 27.8882 44.9811V44.6096C27.8517 44.5304 27.4543 7.98794 27.6126 7.80066V7.80066Z" fill="url(#paint0_linear_104_61)"/>
<path d="M27.6126 7.71986C27.5594 7.61328 27.5061 7.69398 27.4528 7.74575C27.4787 8.27866 27.2929 8.75371 27.0021 9.20745C26.6823 9.65814 26.2591 10.0038 25.8342 10.3753C23.4742 12.4186 21.6166 14.8868 20.129 17.6472C18.1496 21.3624 17.1295 25.344 16.8402 29.5357C16.7077 31.0477 17.3183 36.3829 17.7949 37.9222C19.0952 42.0089 21.4309 45.4333 24.4563 48.4054C25.1993 49.121 25.9941 49.7849 26.8163 50.4228C27.0554 50.4228 27.0813 50.2097 27.1361 50.0513C27.2409 49.7125 27.3208 49.3664 27.3751 49.0159L27.908 45.0359L27.6126 7.71986Z" fill="url(#paint1_linear_104_61)"/>
<path d="M28.9129 51.5876C28.9662 50.9786 29.2586 50.4731 29.5768 49.9691C29.257 49.8367 29.0195 49.5732 28.8337 49.2794C28.6736 49.0012 28.541 48.7079 28.4379 48.4039C28.0663 47.2894 27.9872 46.12 27.8806 44.9811V44.2914C27.7481 44.398 27.7207 45.2993 27.7207 45.4333C27.6432 46.637 27.4835 47.8341 27.2426 49.016C27.1634 49.4941 27.1101 49.9706 26.8163 50.3954C26.8163 50.4487 26.8163 50.502 26.8422 50.5812C27.3203 51.9881 27.4512 53.4208 27.5319 54.881V55.4139C27.5319 56.0503 27.506 55.9164 28.0344 56.1295C28.2475 56.2087 28.4851 56.2361 28.6982 56.3944C28.8581 56.3944 28.884 56.262 28.884 56.1554L28.8048 55.2799V52.8377C28.7789 52.4114 28.8581 51.9881 28.9114 51.5892L28.9129 51.5876Z" fill="#C2BFBF"/>
</g>
<defs>
<linearGradient id="paint0_linear_104_61" x1="27.775" y1="11.0805" x2="39.3068" y2="11.0788" gradientUnits="userSpaceOnUse">
<stop stop-color="#AE67FA"/>
<stop offset="0.973958" stop-color="#F49867"/>
</linearGradient>
<linearGradient id="paint1_linear_104_61" x1="17.0204" y1="10.9929" x2="28.5039" y2="10.9912" gradientUnits="userSpaceOnUse">
<stop stop-color="#AE67FA"/>
<stop offset="0.973958" stop-color="#F49867"/>
</linearGradient>
</defs>
</svg>
