<svg width="60" height="60" viewBox="0 0 60 60" fill="none" xmlns="http://www.w3.org/2000/svg">
<g opacity="0.7">
<path d="M55.2292 45.9864C51.9672 45.9051 49.439 46.2314 47.3186 47.1283C46.7068 47.3728 45.7281 47.373 45.6465 48.1479C45.9728 48.4741 46.0136 49.0043 46.299 49.4526C46.7889 50.268 47.6446 51.3691 48.4194 51.9403C49.2756 52.5925 50.1322 53.2448 51.029 53.8157C52.6194 54.7945 54.4138 55.3652 55.9633 56.3439C56.8607 56.9144 57.7572 57.6489 58.6544 58.2604C59.103 58.5862 59.3882 59.1168 59.9594 59.3205V59.1984C59.6737 58.8311 59.5921 58.3012 59.3069 57.8934C58.8995 57.4856 58.4913 57.1186 58.0834 56.7107C56.901 55.1207 55.4331 53.7342 53.8429 52.5925C52.5381 51.6953 49.6834 50.4721 49.1535 48.9632C49.1535 48.9632 49.1125 48.9227 49.0719 48.8819C49.9689 48.8003 51.029 48.4741 51.8856 48.2294C53.2719 47.8621 54.5359 47.9439 55.9633 47.5769C56.6155 47.4138 57.268 47.2099 57.9203 47.006V46.6392C57.1867 45.9051 56.6566 44.9266 55.8817 44.2333C53.8021 42.4387 51.5183 40.6856 49.1535 39.2177C47.8893 38.4021 46.258 37.8719 44.9125 37.1789C44.4236 36.9339 43.6077 36.8118 43.3225 36.404C42.5882 35.5071 42.1803 34.3246 41.6504 33.2643C40.4682 31.0214 39.3261 28.5342 38.3066 26.1693C37.573 24.5789 37.1244 22.9884 36.2272 21.5207C32.0272 14.5886 27.4601 10.3886 20.4467 6.26995C18.9378 5.41378 17.1436 5.04675 15.2271 4.59839C14.2081 4.55737 13.1883 4.47605 12.169 4.43503C11.5165 4.14956 10.864 3.37495 10.2931 3.00792C7.96923 1.5398 1.9746 -1.64044 0.262019 2.55956C-0.839078 5.20987 1.89327 7.81941 2.83078 9.16542C3.52453 10.1032 4.42125 11.1632 4.91063 12.2235C5.1961 12.9164 5.27743 13.6509 5.56289 14.3847C6.21563 16.1784 6.82688 18.1769 7.68353 19.8489C8.13212 20.7051 8.62126 21.6021 9.1922 22.3769C9.51845 22.8253 10.0892 23.0294 10.2117 23.7632C9.64103 24.5789 9.60002 25.8023 9.27353 26.8216C7.80564 31.4294 8.37681 37.1381 10.4562 40.5225C11.1085 41.5415 12.6582 43.785 14.7378 42.9283C16.5729 42.1945 16.1651 39.8702 16.6948 37.8314C16.8176 37.3415 16.7361 37.0157 16.9805 36.6895V36.7713C17.5514 37.9127 18.1221 39.014 18.6523 40.1557C19.9165 42.1535 22.1183 44.2333 23.9532 45.6199C24.9322 46.3535 25.7068 47.6177 26.9302 48.0663V47.9437H26.8484C26.6037 47.5767 26.2367 47.4138 25.9107 47.1281C25.1769 46.3945 24.361 45.4973 23.7903 44.6817C22.0779 42.3979 20.5688 39.87 19.2232 37.2602C18.571 35.9964 17.9998 34.6099 17.4699 33.3459C17.225 32.8561 17.225 32.1225 16.8174 31.878C16.2057 32.775 15.3087 33.5498 14.8601 34.6507C14.0857 36.404 14.0039 38.5652 13.7185 40.8077C13.5553 40.8489 13.6367 40.8077 13.5551 40.8897C12.2506 40.563 11.802 39.2177 11.3124 38.0758C10.0889 35.1808 9.88502 30.5322 10.9456 27.1886C11.231 26.3322 12.4545 23.6411 11.9651 22.8255C11.7204 22.0507 10.9046 21.6021 10.4562 20.9906C9.92627 20.2157 9.35509 19.2375 8.9883 18.3808C8.00954 16.0973 7.52017 13.5691 6.46008 11.2856C5.97071 10.2253 5.11477 9.12464 4.42125 8.14589C3.64664 7.04503 2.79023 6.26995 2.17851 4.96519C1.97484 4.51683 1.68913 3.78277 2.01538 3.29339C2.09695 2.96714 2.25984 2.84503 2.58632 2.76347C3.11648 2.31464 4.62539 2.88558 5.15508 3.13027C6.66399 3.74152 7.92798 4.31292 9.1922 5.16909C9.76291 5.57691 10.3746 6.35175 11.1085 6.55566H11.9649C13.2699 6.84089 14.7375 6.63722 15.961 7.00402C18.1224 7.69706 20.0794 8.71659 21.833 9.81769C27.1749 13.2021 31.5784 18.0138 34.5554 23.7632C35.0448 24.7007 35.2485 25.5576 35.697 26.5359C36.5537 28.5342 37.6138 30.573 38.4697 32.5303C39.3261 34.4465 40.1415 36.404 41.365 37.9945C41.9767 38.8504 44.4231 39.2993 45.5242 39.7478C46.3398 40.1146 47.604 40.4411 48.3379 40.8895C49.7242 41.7454 51.1105 42.7246 52.4155 43.6621C53.068 44.1515 55.1066 45.1711 55.2292 45.9864V45.9864Z" fill="url(#paint0_linear_104_58)"/>
<path d="M13.6374 10.5513C12.9443 10.5513 12.4552 10.6333 11.9658 10.7554V10.837H12.0474C12.3738 11.4895 12.9443 11.9381 13.3519 12.5088C13.6784 13.161 13.9636 13.8138 14.2901 14.4663C14.3306 14.4253 14.3714 14.3847 14.3714 14.3847C14.9426 13.9767 15.2278 13.3244 15.2278 12.3456C14.9831 12.0604 14.9424 11.7749 14.7384 11.4895C14.494 11.0814 13.9636 10.8778 13.6374 10.5513V10.5513Z" fill="url(#paint1_linear_104_58)"/>
</g>
<defs>
<linearGradient id="paint0_linear_104_58" x1="1.07887" y1="5.04543" x2="63.1818" y2="5.00898" gradientUnits="userSpaceOnUse">
<stop stop-color="#AE67FA"/>
<stop offset="0.973958" stop-color="#F49867"/>
</linearGradient>
<linearGradient id="paint1_linear_104_58" x1="12.0242" y1="10.8558" x2="15.4031" y2="10.8541" gradientUnits="userSpaceOnUse">
<stop stop-color="#AE67FA"/>
<stop offset="0.973958" stop-color="#F49867"/>
</linearGradient>
</defs>
</svg>
